<svg xmlns="http://www.w3.org/2000/svg" viewBox="1.03 2.91 7.65 11.31"><path d="m 3467.2313,-173.43478 c -3.0793,0 -5.5542,-2.81259 -5.5542,-6.30605 v -20.38856 c 0,-3.49347 2.4762,-6.30474 5.5542,-6.30474 h 1.7974 c 3.0792,0 5.5593,2.81127 5.5593,6.30474 v 20.38856 c 0,3.49346 -2.4814,6.30605 -5.5593,6.30605 z m 0.9295,-3.12029 c 1.818,0 3.2798,-1.39451 3.2798,-3.13862 v -20.6583 c 0,-1.74412 -1.4618,-3.15171 -3.2798,-3.15171 -1.8179,0 -3.2849,1.40759 -3.2849,3.15171 v 20.6583 c 0,1.7428 1.467,3.13862 3.2849,3.13862 z m 0,0" transform="matrix(0.28222224950159175,0,0,-0.28222213029232385,-972.9192693921351,-45.04182797150904)" fill="rgb(0, 0, 0)"/><path d="m 3454.5506,-206.43478 v 32.99935 h 3.1988 v -32.99935 z m 0,0" transform="matrix(0.28222224950159175,0,0,-0.28222213029232385,-972.9192693921351,-45.04182797150904)" fill="rgb(0, 0, 0)"/></svg>